<?xml version="1.0" standalone="no"?>
<!DOCTYPE svg PUBLIC "-//W3C//DTD SVG 20010904//EN"
 "http://www.w3.org/TR/2001/REC-SVG-20010904/DTD/svg10.dtd">
<svg version="1.0" xmlns="http://www.w3.org/2000/svg"
 width="5000.000000pt" height="5000.000000pt" viewBox="0 0 5000.000000 5000.000000"
 preserveAspectRatio="xMidYMid meet">

<g transform="translate(0.000000,5000.000000) scale(0.100000,-0.100000)"
fill="#000000" stroke="none">
<path d="M33231 48046 c2 -2 126 -56 274 -119 583 -249 926 -408 1450 -672
889 -449 1659 -896 2480 -1441 464 -307 499 -332 483 -352 -7 -9 -140 -169
-295 -354 -156 -185 -284 -341 -285 -347 -2 -5 80 -63 182 -128 2365 -1516
4456 -3466 6140 -5727 2499 -3356 4040 -7288 4490 -11456 100 -930 135 -1697
127 -2738 -6 -685 -11 -833 -47 -1382 -327 -4876 -2190 -9505 -5344 -13278
-679 -812 -1461 -1624 -2246 -2333 -1608 -1449 -3332 -2622 -5270 -3583 -2659
-1320 -5542 -2114 -8510 -2346 -736 -57 -1266 -74 -2100 -67 -636 5 -780 10
-1285 42 -1987 126 -3974 512 -5860 1140 -187 62 -385 129 -440 150 -630 233
-932 352 -1305 510 -2092 889 -4051 2084 -5790 3534 -650 541 -1141 996 -1799
1666 -995 1014 -1978 2237 -2778 3458 -2471 3771 -3778 8140 -3784 12649 -1
429 -3 477 -17 483 -9 3 -13 3 -10 -1 4 -3 1 -19 -8 -35 -8 -16 -12 -29 -9
-29 3 0 -4 -9 -15 -20 -12 -12 -18 -25 -15 -30 4 -6 1 -10 -6 -10 -7 0 -10 -3
-7 -6 4 -3 0 -13 -8 -22 -46 -52 -90 -126 -374 -618 -171 -296 -322 -552 -334
-569 -13 -16 -90 -145 -171 -285 l-147 -255 7 -130 c47 -939 180 -2053 361
-3010 177 -942 432 -1905 681 -2575 36 -96 112 -314 170 -485 1119 -3315 2803
-6166 5061 -8570 73 -77 132 -144 132 -149 0 -6 -11 -22 -25 -36 l-26 -27 148
-159 c1066 -1147 2268 -2212 3548 -3141 2912 -2113 6238 -3548 9775 -4217
2056 -389 4223 -514 6320 -366 2871 203 5702 917 8305 2093 4710 2128 8628
5693 11194 10185 527 922 1037 1975 1436 2967 996 2473 1576 5079 1730 7765
30 528 38 908 32 1600 -6 818 -31 1348 -98 2065 -598 6482 -3711 12376 -8739
16546 -2107 1748 -4501 3134 -7124 4125 -233 88 -266 100 -255 90z"/>
<path d="M24245 47720 c-1875 -70 -3659 -350 -5410 -850 -3102 -886 -5998
-2443 -8440 -4539 -478 -411 -753 -667 -1331 -1245 -488 -489 -699 -711 -1015
-1066 -1652 -1862 -2981 -3950 -3952 -6210 -1419 -3305 -2027 -6899 -1771
-10485 224 -3153 1105 -6217 2589 -9011 1175 -2209 2748 -4267 4497 -5881 379
-350 908 -808 933 -808 7 0 191 211 407 469 l394 469 -115 100 c-710 610
-1447 1333 -2067 2027 -490 547 -1019 1210 -1455 1820 -286 400 -654 954 -645
969 3 5 27 12 53 16 27 4 102 23 168 42 75 22 2951 1175 7740 3103 4191 1687
8099 3260 8685 3495 586 235 1143 459 1238 497 l172 70 0 62 c0 34 -11 310
-25 612 -13 302 -47 1082 -74 1734 -28 652 -52 1212 -54 1246 -5 70 -25 107
-68 124 -27 12 -34 10 -87 -23 -31 -19 -295 -170 -587 -334 -291 -165 -813
-461 -1160 -658 -346 -197 -877 -498 -1180 -670 -302 -172 -3907 -2213 -8010
-4535 l-7460 -4224 -249 -103 c-137 -57 -254 -103 -259 -103 -15 0 -1 338 17
442 20 111 39 158 93 235 23 34 43 65 43 68 0 4 -16 -3 -35 -15 -40 -25 -42
-19 -15 44 28 66 79 143 150 225 l61 71 -233 468 c-235 470 -369 756 -542
1159 -1343 3132 -1918 6542 -1681 9978 178 2578 800 5033 1880 7420 202 445
610 1245 850 1665 630 1103 1297 2075 2079 3029 2096 2559 4772 4614 7771
5968 2205 995 4518 1601 6945 1818 474 42 1150 78 1150 61 0 -16 -64 -166 -83
-195 -52 -79 -78 -167 -88 -300 -8 -95 -2710 -18776 -2736 -18914 -5 -23
-1265 -1018 -7497 -5918 -4673 -3675 -7516 -5916 -7558 -5960 -62 -64 -114
-147 -106 -168 2 -7 7245 5207 15061 10842 405 293 769 554 807 581 l69 49
108 -57 c167 -89 824 -413 1058 -521 602 -279 1030 -456 1237 -511 103 -27
130 -26 152 9 36 56 52 40 -474 482 -272 229 -702 591 -955 803 -252 213 -482
405 -510 426 -183 143 -270 295 -296 516 -10 79 51 707 925 9480 515 5167 939
9411 942 9432 12 77 163 282 286 389 123 108 261 197 365 238 48 19 52 19 57
3 9 -32 18 -102 13 -102 -3 0 -26 9 -51 20 l-46 19 6 -252 c7 -330 48 -3153
189 -13027 63 -4469 118 -8194 121 -8278 l6 -154 33 32 34 33 15 -37 c20 -49
53 -63 108 -47 24 7 50 19 58 25 37 31 189 114 1715 934 534 287 1063 577
1238 679 4 2 7 2 7 0 0 -2 -124 -86 -275 -187 -152 -101 -274 -187 -273 -191
2 -5 143 -111 313 -237 1307 -963 15698 -11584 15729 -11607 l39 -30 -16 32
c-35 67 -148 204 -272 330 -119 120 -786 651 -7600 6043 -4109 3252 -7476
5918 -7484 5925 -9 9 -34 152 -73 422 -32 224 -126 865 -208 1423 -82 558
-674 4613 -1314 9010 -641 4397 -1172 8034 -1181 8081 -20 117 -59 247 -101
344 -19 44 -38 86 -41 93 -6 13 6 13 507 -14 1597 -85 3218 -357 4760 -800
231 -67 707 -213 840 -259 l75 -26 23 27 23 26 122 -42 c67 -23 126 -46 130
-50 4 -4 -6 -13 -22 -20 -17 -7 -31 -15 -31 -19 0 -3 36 -19 81 -35 l81 -28
26 25 27 25 245 -92 c1544 -584 2960 -1310 4325 -2219 614 -410 1136 -796
1744 -1291 153 -124 186 -147 195 -135 55 73 320 379 326 377 14 -5 216 -193
508 -471 356 -340 780 -778 1118 -1157 1551 -1739 2772 -3671 3632 -5750 218
-528 492 -1292 492 -1373 0 -24 33 -129 86 -275 664 -1826 1091 -3780 1289
-5907 23 -248 65 -751 65 -781 0 -7 20 -25 45 -40 42 -27 45 -32 51 -87 4 -32
9 -55 12 -53 3 3 34 -15 69 -39 35 -25 68 -45 73 -45 6 0 10 -5 10 -11 0 -5 5
-7 10 -4 6 3 13 -1 16 -9 3 -9 10 -14 14 -11 5 3 13 -2 18 -11 5 -9 12 -15 15
-15 12 2 117 -71 117 -81 0 -5 5 -6 10 -3 6 3 13 -1 16 -9 3 -9 10 -13 15 -10
5 3 12 -2 15 -10 3 -9 10 -14 14 -11 5 3 13 -3 19 -12 6 -10 11 -14 11 -10 0
4 29 -12 64 -37 34 -25 66 -43 69 -39 4 3 9 -2 13 -11 3 -9 10 -13 15 -10 5 3
12 -2 15 -10 3 -9 12 -16 20 -16 8 0 14 -4 14 -10 0 -5 6 -10 14 -10 8 0 17
-7 20 -16 3 -8 10 -13 15 -10 5 3 12 -1 15 -10 3 -8 10 -13 15 -10 5 3 12 -1
15 -10 3 -8 10 -13 15 -10 5 3 12 -1 15 -10 3 -8 10 -12 16 -9 6 3 13 -1 16
-9 3 -9 10 -13 15 -10 5 3 12 -2 15 -10 3 -9 12 -16 20 -16 8 0 14 -4 14 -10
0 -5 6 -10 14 -10 8 0 17 -7 20 -16 3 -8 10 -13 15 -10 5 3 12 -1 15 -10 3 -8
10 -13 15 -10 5 3 12 -1 15 -10 3 -8 10 -13 15 -10 5 3 12 -1 15 -10 3 -8 10
-12 16 -9 6 3 13 -1 16 -9 3 -9 10 -13 15 -10 5 3 12 -2 15 -10 3 -9 12 -16
20 -16 8 0 14 -4 14 -10 0 -5 7 -10 15 -10 8 0 15 -4 15 -10 0 -5 6 -10 14
-10 8 0 17 -7 20 -16 3 -8 11 -12 17 -8 24 15 -13 914 -62 1514 -199 2447
-793 4832 -1769 7110 -1351 3155 -3438 6035 -6008 8291 -3250 2854 -7290 4721
-11542 5333 -750 108 -1389 170 -2175 212 -347 18 -1498 27 -1840 14z"/>
<path d="M25256 24475 c-22 -7 -52 -26 -67 -42 l-29 -28 -78 -1810 c-44 -995
-79 -1811 -78 -1811 0 -1 1725 -696 3831 -1544 2107 -848 4204 -1693 4660
-1877 457 -184 1129 -455 1495 -603 366 -147 1133 -457 1705 -688 572 -231
1695 -683 2495 -1005 1979 -797 3462 -1395 3595 -1451 323 -134 611 -149 920
-50 103 33 320 137 424 204 44 28 81 55 81 58 0 4 -2476 1404 -5503 3112
-3026 1707 -6422 3624 -7547 4258 -1125 635 -2871 1620 -3880 2189 -1009 570
-1855 1048 -1880 1063 -58 36 -96 43 -144 25z"/>
</g>
</svg>
